<?xml version="1.0" encoding="UTF-8"?>
<!DOCTYPE svg PUBLIC "-//W3C//DTD SVG 1.1//EN" "http://www.w3.org/Graphics/SVG/1.1/DTD/svg11.dtd">
<svg xmlns="http://www.w3.org/2000/svg" version="1.1" width="143px" height="142px" style="shape-rendering:geometricPrecision; text-rendering:geometricPrecision; image-rendering:optimizeQuality; fill-rule:evenodd; clip-rule:evenodd" xmlns:xlink="http://www.w3.org/1999/xlink">
<g><path style="opacity:0.71" fill="#bf1b81" d="M 59.5,-0.5 C 60.5,-0.5 61.5,-0.5 62.5,-0.5C 62.5,0.5 62.5,1.5 62.5,2.5C 61.5,2.5 60.5,2.5 59.5,2.5C 59.5,1.83333 59.5,1.16667 59.5,0.5C 59.5,0.166667 59.5,-0.166667 59.5,-0.5 Z"/></g>
<g><path style="opacity:0.757" fill="#c91680" d="M 62.5,-0.5 C 64.5,-0.5 66.5,-0.5 68.5,-0.5C 68.5,0.166667 68.5,0.833333 68.5,1.5C 66.6208,2.34141 64.6208,2.67474 62.5,2.5C 62.5,1.5 62.5,0.5 62.5,-0.5 Z"/></g>
<g><path style="opacity:1" fill="#d6107e" d="M 68.5,-0.5 C 70.1667,-0.5 71.8333,-0.5 73.5,-0.5C 73.5,0.166667 73.5,0.833333 73.5,1.5C 71.8333,1.5 70.1667,1.5 68.5,1.5C 68.5,0.833333 68.5,0.166667 68.5,-0.5 Z"/></g>
<g><path style="opacity:0.703" fill="#e2097d" d="M 73.5,-0.5 C 75.1667,-0.5 76.8333,-0.5 78.5,-0.5C 78.5,0.5 78.5,1.5 78.5,2.5C 76.7085,2.63404 75.0418,2.30071 73.5,1.5C 73.5,0.833333 73.5,0.166667 73.5,-0.5 Z"/></g>
<g><path style="opacity:0.692" fill="#eb047c" d="M 78.5,-0.5 C 80.1667,-0.5 81.8333,-0.5 83.5,-0.5C 116.142,7.80874 135.809,28.4754 142.5,61.5C 142.5,67.5 142.5,73.5 142.5,79.5C 135.725,112.942 115.725,133.609 82.5,141.5C 81.1667,141.5 79.8333,141.5 78.5,141.5C 78.5,140.5 78.5,139.5 78.5,138.5C 116.324,131.518 136.657,108.851 139.5,70.5C 136.641,32.0949 116.308,9.42826 78.5,2.5C 78.5,1.5 78.5,0.5 78.5,-0.5 Z"/></g>
<g><path style="opacity:0.709" fill="#b61d82" d="M 59.5,0.5 C 59.5,1.16667 59.5,1.83333 59.5,2.5C 57.6264,3.28518 55.6264,3.95184 53.5,4.5C 53.5,3.5 53.5,2.5 53.5,1.5C 55.3792,0.658588 57.3792,0.325255 59.5,0.5 Z"/></g>
<g><path style="opacity:0.657" fill="#ab2184" d="M 53.5,1.5 C 53.5,2.5 53.5,3.5 53.5,4.5C 52.391,4.55688 51.391,4.89022 50.5,5.5C 50.5,4.5 50.5,3.5 50.5,2.5C 51.209,1.59603 52.209,1.26269 53.5,1.5 Z"/></g>
<g><path style="opacity:0.676" fill="#a42285" d="M 50.5,2.5 C 50.5,3.5 50.5,4.5 50.5,5.5C 49.391,5.55688 48.391,5.89022 47.5,6.5C 47.5,5.5 47.5,4.5 47.5,3.5C 48.209,2.59603 49.209,2.26269 50.5,2.5 Z"/></g>
<g><path style="opacity:0.671" fill="#992586" d="M 47.5,3.5 C 47.5,4.5 47.5,5.5 47.5,6.5C 45.5,7.16667 43.5,7.83333 41.5,8.5C 41.5,7.5 41.5,6.5 41.5,5.5C 43.2972,4.27024 45.2972,3.60357 47.5,3.5 Z"/></g>
<g><path style="opacity:0.697" fill="#8e2787" d="M 41.5,5.5 C 41.5,6.5 41.5,7.5 41.5,8.5C 40.0351,9.73685 38.3684,10.7368 36.5,11.5C 36.5,10.5 36.5,9.5 36.5,8.5C 37.9649,7.26315 39.6316,6.26315 41.5,5.5 Z"/></g>
<g><path style="opacity:0.715" fill="#862989" d="M 36.5,8.5 C 36.5,9.5 36.5,10.5 36.5,11.5C 35.5,12.1667 34.5,12.8333 33.5,13.5C 33.5,12.1667 33.5,10.8333 33.5,9.5C 34.391,8.89022 35.391,8.55688 36.5,8.5 Z"/></g>
<g><path style="opacity:0.678" fill="#7c2a8a" d="M 33.5,9.5 C 33.5,10.8333 33.5,12.1667 33.5,13.5C 31.5,14.8333 29.5,16.1667 27.5,17.5C 27.5,16.5 27.5,15.5 27.5,14.5C 29.0905,12.3674 31.0905,10.7007 33.5,9.5 Z"/></g>
<g><path style="opacity:0.679" fill="#6f2b8c" d="M 27.5,14.5 C 27.5,15.5 27.5,16.5 27.5,17.5C 26.4206,19.543 24.754,20.8763 22.5,21.5C 22.5,20.5 22.5,19.5 22.5,18.5C 23.5846,16.4131 25.2512,15.0798 27.5,14.5 Z"/></g>
<g><path style="opacity:0.658" fill="#632d8d" d="M 22.5,18.5 C 22.5,19.5 22.5,20.5 22.5,21.5C 21.2993,23.9095 19.6326,25.9095 17.5,27.5C 17.5,26.1667 17.5,24.8333 17.5,23.5C 18.8333,21.5 20.5,19.8333 22.5,18.5 Z"/></g>
<g><path style="opacity:0.665" fill="#5a2e8e" d="M 17.5,23.5 C 17.5,24.8333 17.5,26.1667 17.5,27.5C 16.9744,29.2303 15.9744,30.5637 14.5,31.5C 14.5,30.1667 14.5,28.8333 14.5,27.5C 15.0256,25.7697 16.0256,24.4363 17.5,23.5 Z"/></g>
<g><path style="opacity:0.689" fill="#502f8f" d="M 14.5,27.5 C 14.5,28.8333 14.5,30.1667 14.5,31.5C 13.6493,33.8816 12.316,35.8816 10.5,37.5C 10.5,36.1667 10.5,34.8333 10.5,33.5C 11.3403,31.1475 12.6736,29.1475 14.5,27.5 Z"/></g>
<g><path style="opacity:0.647" fill="#472f8f" d="M 10.5,33.5 C 10.5,34.8333 10.5,36.1667 10.5,37.5C 9.73623,40.0177 8.73623,42.351 7.5,44.5C 7.5,42.5 7.5,40.5 7.5,38.5C 7.74973,36.326 8.74973,34.6594 10.5,33.5 Z"/></g>
<g><path style="opacity:0.663" fill="#3f3090" d="M 7.5,38.5 C 7.5,40.5 7.5,42.5 7.5,44.5C 6.87096,47.3973 5.87096,50.064 4.5,52.5C 4.5,50.1667 4.5,47.8333 4.5,45.5C 4.93482,42.8427 5.93482,40.5093 7.5,38.5 Z"/></g>
<g><path style="opacity:0.697" fill="#e6e7e7" d="M 107.5,38.5 C 108.496,38.4142 109.329,38.7476 110,39.5C 110.333,43.1667 110.667,46.8333 111,50.5C 115.665,47.5442 119.998,47.8775 124,51.5C 125.377,58.0764 125.877,64.7431 125.5,71.5C 124.178,71.67 123.011,71.3366 122,70.5C 121.667,65.1667 121.333,59.8333 121,54.5C 117.402,50.5963 114.069,50.9297 111,55.5C 110.667,60.5 110.333,65.5 110,70.5C 108.989,71.3366 107.822,71.67 106.5,71.5C 106.19,60.4187 106.523,49.4187 107.5,38.5 Z"/></g>
<g><path style="opacity:0.728" fill="#e6e7e7" d="M 92.5,42.5 C 93.5,42.5 94.5,42.5 95.5,42.5C 95.5,44.5 95.5,46.5 95.5,48.5C 97.9775,48.0508 99.9775,48.7175 101.5,50.5C 99.9775,52.2825 97.9775,52.9492 95.5,52.5C 95.3341,57.5111 95.5007,62.5111 96,67.5C 97.0113,68.3366 98.1779,68.67 99.5,68.5C 99.5,69.5 99.5,70.5 99.5,71.5C 96.6205,71.9675 94.2871,71.1341 92.5,69C 91.5701,63.5496 91.2367,58.0496 91.5,52.5C 88.5,52.8333 87.1667,51.5 87.5,48.5C 88.8333,48.5 90.1667,48.5 91.5,48.5C 91.3253,46.3792 91.6586,44.3792 92.5,42.5 Z"/></g>
<g><path style="opacity:0.756" fill="#343090" d="M 4.5,45.5 C 4.5,47.8333 4.5,50.1667 4.5,52.5C 1.83333,64.5 1.83333,76.5 4.5,88.5C 4.5,90.8333 4.5,93.1667 4.5,95.5C 2.74241,92.1456 1.74241,88.479 1.5,84.5C 1.5,75.1667 1.5,65.8333 1.5,56.5C 1.74241,52.521 2.74241,48.8544 4.5,45.5 Z"/></g>
<g><path style="opacity:0.779" fill="#e6e7e7" d="M 28.5,45.5 C 42.6368,44.7018 48.1368,51.3684 45,65.5C 43.1354,72.0675 39.6354,77.5675 34.5,82C 32.0912,83.7068 29.4245,84.5402 26.5,84.5C 26.238,83.0222 26.5713,81.6888 27.5,80.5C 32.311,77.5225 36.311,73.6892 39.5,69C 28.6474,72.8664 22.314,69.0331 20.5,57.5C 21.2039,52.0661 23.8705,48.0661 28.5,45.5 Z M 29.5,49.5 C 39.1863,48.8807 42.6863,53.2141 40,62.5C 34.7917,68.1403 30.125,67.807 26,61.5C 24.5934,56.6427 25.76,52.6427 29.5,49.5 Z"/></g>
<g><path style="opacity:0.677" fill="#e6e7e7" d="M 52.5,48.5 C 53.8221,48.33 54.9887,48.6634 56,49.5C 56.6667,56.5 56.6667,63.5 56,70.5C 54.9887,71.3366 53.8221,71.67 52.5,71.5C 52.5,63.8333 52.5,56.1667 52.5,48.5 Z"/></g>
<g><path style="opacity:0.765" fill="#e6e7e7" d="M 64.5,48.5 C 66.0174,48.5106 67.1841,49.1772 68,50.5C 72.3995,47.8937 76.7328,47.8937 81,50.5C 82.4247,57.3846 82.9247,64.3846 82.5,71.5C 81.5,71.5 80.5,71.5 79.5,71.5C 79.8608,65.4067 79.3608,59.4067 78,53.5C 74.4661,50.7992 71.1328,51.1325 68,54.5C 67.6667,59.8333 67.3333,65.1667 67,70.5C 65.9887,71.3366 64.8221,71.67 63.5,71.5C 63.201,63.747 63.5343,56.0804 64.5,48.5 Z"/></g>
<g><path style="opacity:0.654" fill="#2e3192" d="M 1.5,56.5 C 1.5,65.8333 1.5,75.1667 1.5,84.5C 0.833333,82.1667 0.166667,79.8333 -0.5,77.5C -0.5,72.8333 -0.5,68.1667 -0.5,63.5C 0.166667,61.1667 0.833333,58.8333 1.5,56.5 Z"/></g>
<g><path style="opacity:0.743" fill="#e6e7e7" d="M 16.5,78.5 C 17.9778,78.238 19.3112,78.5713 20.5,79.5C 22.9432,84.7199 25.1099,90.0532 27,95.5C 28,93.1667 29,90.8333 30,88.5C 31.3876,87.4464 32.8876,87.2797 34.5,88C 32.5,92.3333 30.5,96.6667 28.5,101C 27.2161,101.684 26.0495,101.517 25,100.5C 21.8695,93.246 19.0361,85.9126 16.5,78.5 Z"/></g>
<g><path style="opacity:0.736" fill="#e6e7e7" d="M 41.5,78.5 C 42.8221,78.33 43.9887,78.6634 45,79.5C 45.6667,86.5 45.6667,93.5 45,100.5C 43.9887,101.337 42.8221,101.67 41.5,101.5C 41.5,93.8333 41.5,86.1667 41.5,78.5 Z"/></g>
<g><path style="opacity:0.742" fill="#e6e7e7" d="M 53.5,78.5 C 56.8499,78.335 60.1832,78.5017 63.5,79C 64.3333,79.8333 65.1667,80.6667 66,81.5C 66.6013,82.9653 66.1013,83.9653 64.5,84.5C 60.631,80.6987 56.9644,80.6987 53.5,84.5C 53.9767,85.4776 54.6433,86.3109 55.5,87C 59.1218,87.9023 62.4551,89.4023 65.5,91.5C 67.7383,99.9295 64.4049,103.43 55.5,102C 51.9005,101.236 49.9005,99.0698 49.5,95.5C 52.3547,96.7516 55.3547,97.7516 58.5,98.5C 63.0568,98.172 64.0568,96.3387 61.5,93C 57.7367,92.0801 54.2367,90.5801 51,88.5C 49.8613,84.5789 50.6946,81.2456 53.5,78.5 Z"/></g>
<g><path style="opacity:0.887" fill="#e6e7e7" d="M 71.5,78.5 C 72.5,78.5 73.5,78.5 74.5,78.5C 74.5,86.1667 74.5,93.8333 74.5,101.5C 73.5,101.5 72.5,101.5 71.5,101.5C 71.5,93.8333 71.5,86.1667 71.5,78.5 Z"/></g>
<g><path style="opacity:0.713" fill="#eb047c" d="M 90.5,78.5 C 90.5,79.5 90.5,80.5 90.5,81.5C 85.7139,82.6193 83.0473,85.6193 82.5,90.5C 81.0222,90.762 79.6888,90.4287 78.5,89.5C 79.3666,82.2963 83.3666,78.6296 90.5,78.5 Z"/></g>
<g><path style="opacity:0.919" fill="#cc157f" d="M 90.5,78.5 C 91.1667,78.5 91.8333,78.5 92.5,78.5C 92.5,79.5 92.5,80.5 92.5,81.5C 91.8333,81.5 91.1667,81.5 90.5,81.5C 90.5,80.5 90.5,79.5 90.5,78.5 Z"/></g>
<g><path style="opacity:0.735" fill="#af1f83" d="M 92.5,78.5 C 93.1667,78.5 93.8333,78.5 94.5,78.5C 94.5,79.8333 94.5,81.1667 94.5,82.5C 93.5084,82.6716 92.8417,82.3382 92.5,81.5C 92.5,80.5 92.5,79.5 92.5,78.5 Z"/></g>
<g><path style="opacity:0.797" fill="#e6e7e7" d="M 106.5,78.5 C 108.143,78.4802 109.476,79.1468 110.5,80.5C 114.833,77.8333 119.167,77.8333 123.5,80.5C 124,81.5 124.5,82.5 125,83.5C 125.499,89.4908 125.666,95.4908 125.5,101.5C 124.178,101.67 123.011,101.337 122,100.5C 121.667,95.1667 121.333,89.8333 121,84.5C 116.657,80.3275 112.99,80.9941 110,86.5C 109.501,91.4889 109.334,96.4889 109.5,101.5C 108.5,101.5 107.5,101.5 106.5,101.5C 106.5,93.8333 106.5,86.1667 106.5,78.5 Z"/></g>
<g><path style="opacity:0.701" fill="#932787" d="M 94.5,78.5 C 95.1667,78.8333 95.8333,79.1667 96.5,79.5C 96.5,81.1667 96.5,82.8333 96.5,84.5C 95.5,84.1667 94.8333,83.5 94.5,82.5C 94.5,81.1667 94.5,79.8333 94.5,78.5 Z"/></g>
<g><path style="opacity:0.665" fill="#772a8b" d="M 96.5,79.5 C 97.5,79.8333 98.1667,80.5 98.5,81.5C 98.5,83.8333 98.5,86.1667 98.5,88.5C 97.6554,87.3285 96.9887,85.9952 96.5,84.5C 96.5,82.8333 96.5,81.1667 96.5,79.5 Z"/></g>
<g><path style="opacity:0.849" fill="#542e8e" d="M 98.5,81.5 C 101.075,83.8453 102.075,86.8453 101.5,90.5C 99.8212,90.7148 98.8212,90.0481 98.5,88.5C 98.5,86.1667 98.5,83.8333 98.5,81.5 Z"/></g>
<g><path style="opacity:0.656" fill="#3f3090" d="M 4.5,88.5 C 5.87096,90.936 6.87096,93.6027 7.5,96.5C 7.5,98.5 7.5,100.5 7.5,102.5C 5.93482,100.491 4.93482,98.1573 4.5,95.5C 4.5,93.1667 4.5,90.8333 4.5,88.5 Z"/></g>
<g><path style="opacity:0.651" fill="#472f8f" d="M 7.5,96.5 C 8.73623,98.649 9.73623,100.982 10.5,103.5C 10.5,104.833 10.5,106.167 10.5,107.5C 8.74973,106.341 7.74973,104.674 7.5,102.5C 7.5,100.5 7.5,98.5 7.5,96.5 Z"/></g>
<g><path style="opacity:0.694" fill="#522f8f" d="M 10.5,103.5 C 12.316,105.118 13.6493,107.118 14.5,109.5C 14.5,110.833 14.5,112.167 14.5,113.5C 12.6736,111.853 11.3403,109.853 10.5,107.5C 10.5,106.167 10.5,104.833 10.5,103.5 Z"/></g>
<g><path style="opacity:0.665" fill="#5a2e8e" d="M 14.5,109.5 C 15.9744,110.436 16.9744,111.77 17.5,113.5C 17.5,114.833 17.5,116.167 17.5,117.5C 16.0256,116.564 15.0256,115.23 14.5,113.5C 14.5,112.167 14.5,110.833 14.5,109.5 Z"/></g>
<g><path style="opacity:0.651" fill="#652d8d" d="M 17.5,113.5 C 19.5,114.833 21.1667,116.5 22.5,118.5C 22.5,119.833 22.5,121.167 22.5,122.5C 20.5,121.167 18.8333,119.5 17.5,117.5C 17.5,116.167 17.5,114.833 17.5,113.5 Z"/></g>
<g><path style="opacity:0.597" fill="#6f2b8c" d="M 22.5,118.5 C 24.5,119.833 26.1667,121.5 27.5,123.5C 27.5,124.5 27.5,125.5 27.5,126.5C 25.2512,125.92 23.5846,124.587 22.5,122.5C 22.5,121.167 22.5,119.833 22.5,118.5 Z"/></g>
<g><path style="opacity:0.652" fill="#7e2a8a" d="M 27.5,123.5 C 29.5,124.833 31.5,126.167 33.5,127.5C 33.5,128.833 33.5,130.167 33.5,131.5C 31.0905,130.299 29.0905,128.633 27.5,126.5C 27.5,125.5 27.5,124.5 27.5,123.5 Z"/></g>
<g><path style="opacity:0.715" fill="#862989" d="M 33.5,127.5 C 34.5,128.167 35.5,128.833 36.5,129.5C 36.5,130.5 36.5,131.5 36.5,132.5C 35.391,132.443 34.391,132.11 33.5,131.5C 33.5,130.167 33.5,128.833 33.5,127.5 Z"/></g>
<g><path style="opacity:0.683" fill="#902787" d="M 36.5,129.5 C 38.3684,130.263 40.0351,131.263 41.5,132.5C 41.5,133.5 41.5,134.5 41.5,135.5C 39.6316,134.737 37.9649,133.737 36.5,132.5C 36.5,131.5 36.5,130.5 36.5,129.5 Z"/></g>
<g><path style="opacity:0.662" fill="#9b2586" d="M 41.5,132.5 C 43.5,133.167 45.5,133.833 47.5,134.5C 47.5,135.5 47.5,136.5 47.5,137.5C 45.2972,137.396 43.2972,136.73 41.5,135.5C 41.5,134.5 41.5,133.5 41.5,132.5 Z"/></g>
<g><path style="opacity:0.676" fill="#a42285" d="M 47.5,134.5 C 48.391,135.11 49.391,135.443 50.5,135.5C 50.5,136.5 50.5,137.5 50.5,138.5C 49.209,138.737 48.209,138.404 47.5,137.5C 47.5,136.5 47.5,135.5 47.5,134.5 Z"/></g>
<g><path style="opacity:0.67" fill="#ab2184" d="M 50.5,135.5 C 51.391,136.11 52.391,136.443 53.5,136.5C 53.5,137.5 53.5,138.5 53.5,139.5C 52.209,139.737 51.209,139.404 50.5,138.5C 50.5,137.5 50.5,136.5 50.5,135.5 Z"/></g>
<g><path style="opacity:0.716" fill="#b61d82" d="M 53.5,136.5 C 55.6264,137.048 57.6264,137.715 59.5,138.5C 59.5,139.167 59.5,139.833 59.5,140.5C 57.3792,140.675 55.3792,140.341 53.5,139.5C 53.5,138.5 53.5,137.5 53.5,136.5 Z"/></g>
<g><path style="opacity:0.709" fill="#c01a81" d="M 59.5,138.5 C 61.1667,138.5 62.8333,138.5 64.5,138.5C 64.5,139.5 64.5,140.5 64.5,141.5C 62.8333,141.5 61.1667,141.5 59.5,141.5C 59.5,141.167 59.5,140.833 59.5,140.5C 59.5,139.833 59.5,139.167 59.5,138.5 Z"/></g>
<g><path style="opacity:0.704" fill="#cc157f" d="M 64.5,138.5 C 66.6208,138.325 68.6208,138.659 70.5,139.5C 70.5,140.167 70.5,140.833 70.5,141.5C 68.5,141.5 66.5,141.5 64.5,141.5C 64.5,140.5 64.5,139.5 64.5,138.5 Z"/></g>
<g><path style="opacity:0.884" fill="#da0e7e" d="M 75.5,138.5 C 75.5,139.5 75.5,140.5 75.5,141.5C 73.8333,141.5 72.1667,141.5 70.5,141.5C 70.5,140.833 70.5,140.167 70.5,139.5C 72.1172,138.962 73.7839,138.629 75.5,138.5 Z"/></g>
<g><path style="opacity:0.696" fill="#e4087d" d="M 75.5,138.5 C 76.5,138.5 77.5,138.5 78.5,138.5C 78.5,139.5 78.5,140.5 78.5,141.5C 77.5,141.5 76.5,141.5 75.5,141.5C 75.5,140.5 75.5,139.5 75.5,138.5 Z"/></g>
</svg>
